<?xml version="1.0" standalone="no"?>
<!DOCTYPE svg PUBLIC "-//W3C//DTD SVG 20010904//EN"
 "http://www.w3.org/TR/2001/REC-SVG-20010904/DTD/svg10.dtd">
<svg version="1.0" xmlns="http://www.w3.org/2000/svg"
 width="936.000000pt" height="936.000000pt" viewBox="0 0 936.000000 936.000000"
 preserveAspectRatio="xMidYMid meet">
<metadata>
Created by potrace 1.14, written by Peter Selinger 2001-2017
</metadata>
<g transform="translate(0.000000,936.000000) scale(0.100000,-0.100000)"
fill="#000000" stroke="none">
<path d="M1945 8354 c-5 -1 -44 -13 -85 -25 -41 -13 -77 -24 -80 -24 -8 -3
-64 -25 -85 -35 -11 -5 -45 -19 -75 -31 -114 -47 -350 -183 -406 -234 -6 -5
-33 -28 -59 -50 -47 -38 -120 -112 -185 -184 -52 -59 -126 -172 -170 -261 -23
-47 -49 -97 -57 -112 -8 -16 -11 -28 -7 -28 3 0 2 -6 -4 -12 -9 -12 -49 -130
-58 -173 -2 -11 -6 -32 -10 -47 -3 -15 -5 -29 -4 -30 1 -2 -4 -16 -10 -33 -10
-27 -16 -63 -25 -160 -1 -16 -3 -30 -4 -30 -7 0 -13 -243 -15 -675 -2 -278 -4
-505 -5 -505 -1 0 -4 -16 -7 -35 -2 -19 -7 -46 -11 -60 -3 -14 -7 -32 -8 -40
-1 -8 -4 -22 -8 -30 -3 -8 -11 -33 -17 -55 -30 -101 -121 -224 -205 -278 -78
-51 -196 -85 -315 -92 l-25 -1 0 -424 0 -425 30 -1 c137 -9 229 -36 313 -91
138 -92 208 -228 250 -488 5 -27 9 -273 9 -545 1 -272 4 -526 8 -565 7 -91 14
-156 20 -186 3 -13 7 -36 10 -51 36 -195 112 -399 208 -558 170 -282 473 -526
817 -659 47 -18 94 -37 105 -41 11 -5 56 -20 100 -33 l80 -25 13 32 c21 48 53
137 63 176 6 19 14 44 18 55 14 31 36 89 36 95 1 5 40 112 52 140 3 8 5 21 4
28 -1 6 4 12 10 12 7 0 10 3 6 6 -3 3 3 28 14 55 10 28 19 53 19 57 0 4 -28
22 -63 39 -100 52 -198 143 -245 228 -9 17 -19 32 -23 35 -12 11 -78 169 -85
204 -2 10 -8 33 -13 50 -14 44 -36 168 -48 261 -2 22 -6 276 -8 565 -3 480 -7
620 -21 705 -11 69 -36 179 -45 203 -6 15 -12 34 -14 44 -6 27 -66 161 -91
200 -13 21 -24 42 -24 48 0 5 -4 10 -10 10 -5 0 -10 7 -10 15 0 7 -6 18 -13
22 -7 4 -21 22 -32 38 -55 87 -263 259 -395 325 -41 21 -43 24 -23 31 26 10
148 85 184 113 14 12 40 32 57 45 116 87 251 262 314 406 27 62 61 152 58 157
-1 2 3 15 9 31 12 30 18 58 27 127 3 25 8 48 10 51 10 18 16 229 20 709 2 294
5 549 8 565 9 66 27 165 41 223 3 12 7 30 9 40 49 207 200 421 349 493 70 34
72 36 72 50 -1 15 -30 110 -47 149 -21 49 -27 66 -42 110 -8 25 -31 90 -51
145 -20 55 -38 105 -39 110 -4 15 -21 60 -42 111 -5 12 -13 20 -19 18z"/>
<path d="M7357 8307 c-29 -82 -76 -216 -102 -287 -14 -36 -41 -110 -61 -165
-20 -55 -37 -104 -38 -110 -1 -5 -5 -16 -9 -22 -10 -15 -1 -33 16 -33 20 0
137 -76 180 -116 105 -100 195 -268 233 -434 27 -117 38 -188 49 -305 2 -22 4
-285 6 -584 1 -300 6 -561 10 -580 4 -20 13 -70 19 -111 14 -86 57 -224 96
-307 95 -203 304 -422 491 -515 24 -12 43 -25 43 -30 0 -4 7 -8 15 -8 8 0 15
-4 15 -10 0 -9 -8 -12 -26 -9 -4 0 -10 -4 -13 -9 -3 -5 -24 -19 -46 -31 -45
-24 -78 -44 -85 -51 -3 -3 -30 -24 -60 -46 -77 -58 -180 -163 -226 -231 -22
-32 -42 -60 -45 -63 -18 -15 -103 -208 -124 -283 -56 -193 -57 -208 -61 -762
-4 -604 -9 -736 -39 -875 -3 -14 -8 -38 -10 -55 -11 -59 -68 -211 -106 -282
-42 -79 -59 -102 -131 -174 -45 -46 -172 -129 -196 -129 -15 0 -17 6 19 -91
40 -111 107 -301 127 -364 9 -27 21 -53 27 -57 5 -4 7 -8 3 -8 -3 0 6 -33 22
-72 22 -58 32 -72 46 -70 11 2 73 21 139 44 207 70 456 201 587 308 104 85
180 161 257 256 39 48 71 92 71 96 0 5 9 18 20 30 10 12 17 25 14 30 -3 4 -1
8 3 8 9 0 51 80 97 183 23 51 79 224 91 281 2 12 6 32 9 45 3 12 8 43 10 67 3
24 8 55 12 68 13 51 15 136 18 641 3 515 7 620 26 685 5 19 8 36 5 38 -3 4 2
22 34 107 50 132 141 235 254 289 40 19 90 37 112 42 22 4 47 9 55 11 8 2 39
5 68 5 28 1 52 5 53 8 4 20 3 833 -1 839 -3 5 -12 8 -20 8 -53 0 -154 17 -205
35 -166 57 -277 182 -334 373 -41 141 -43 176 -46 765 -3 559 -7 627 -42 785
-4 17 -7 32 -8 35 -1 6 -17 81 -20 95 -20 88 -130 340 -183 420 -92 138 -240
298 -352 381 -117 86 -129 94 -139 94 -6 0 -11 3 -11 8 0 4 -10 12 -23 18 -12
6 -51 26 -87 45 -87 47 -201 96 -224 97 -5 0 -12 4 -15 9 -5 7 -146 55 -226
77 -17 5 -23 -2 -38 -47z"/>
<path d="M3378 5115 c-2 -2 -19 -5 -38 -8 -134 -22 -274 -88 -365 -174 -127
-120 -187 -261 -189 -448 -1 -95 18 -210 36 -221 4 -3 8 -11 8 -19 0 -30 74
-138 137 -200 36 -36 69 -65 74 -65 4 0 14 -6 21 -12 25 -25 119 -68 178 -83
3 -1 12 -5 20 -8 54 -22 314 -32 385 -14 75 18 141 41 147 51 4 6 8 7 8 3 0
-4 21 4 46 18 173 97 279 235 320 419 10 41 11 184 3 232 -13 81 -17 93 -44
152 -43 94 -87 150 -180 231 -31 26 -163 99 -192 106 -17 4 -72 19 -118 31
-20 5 -252 13 -257 9z"/>
<path d="M5695 5112 c-199 -23 -416 -151 -492 -289 -10 -18 -21 -33 -25 -33
-5 0 -8 -6 -8 -12 0 -7 -7 -26 -15 -41 -42 -82 -59 -222 -43 -362 16 -136 109
-288 233 -380 22 -17 42 -32 45 -36 10 -11 138 -68 163 -73 15 -2 31 -7 36
-10 30 -19 267 -28 361 -14 58 8 174 49 220 77 19 11 44 25 56 30 33 15 157
142 179 184 11 20 23 37 27 37 5 0 8 8 8 18 0 10 4 22 8 27 11 13 30 78 41
139 18 98 -1 297 -31 331 -4 5 -8 16 -8 25 0 25 -70 128 -126 185 -44 45 -131
110 -144 108 -3 -1 -12 4 -20 11 -62 53 -317 95 -465 78z"/>
</g>
</svg>
