<?xml version="1.0" encoding="UTF-8" standalone="no"?>
<!DOCTYPE svg PUBLIC "-//W3C//DTD SVG 1.1//EN" "http://www.w3.org/Graphics/SVG/1.1/DTD/svg11.dtd">
<svg width="100%" height="100%" viewBox="0 0 117 92" version="1.1" xmlns="http://www.w3.org/2000/svg" xmlns:xlink="http://www.w3.org/1999/xlink" xml:space="preserve" xmlns:serif="http://www.serif.com/" style="fill-rule:evenodd;clip-rule:evenodd;stroke-linejoin:round;stroke-miterlimit:2;">
    <g transform="matrix(1,0,0,1,-246.348,-200.363)">
        <g>
            <path d="M270.816,292.097C259.566,288.941 253.941,281.675 253.941,270.3L253.941,261.019C253.941,254.707 251.41,251.55 246.348,251.55L246.348,240.91C251.41,240.91 253.941,237.738 253.941,231.394L253.941,221.55C254.035,215.925 255.496,211.379 258.324,207.91C261.152,204.441 265.316,201.925 270.816,200.363L273.77,208.613C269.832,210.113 267.785,214.316 267.629,221.222L267.629,231.394C267.629,238.394 264.738,243.332 258.957,246.207C264.738,249.082 267.629,254.035 267.629,261.066L267.629,271.191C267.785,278.097 269.832,282.3 273.77,283.8L270.816,292.097Z" style="fill-rule:nonzero;"/>
            <g transform="matrix(1,0,0,1,0,-19)">
                <path d="M289.848,259.894C292.348,259.894 294.426,260.636 296.082,262.121C297.738,263.605 298.566,265.504 298.566,267.816C298.566,270.129 297.738,272.027 296.082,273.511C294.426,274.996 292.348,275.738 289.848,275.738C287.316,275.738 285.23,274.988 283.59,273.488C281.949,271.988 281.129,270.097 281.129,267.816C281.129,265.535 281.949,263.644 283.59,262.144C285.23,260.644 287.316,259.894 289.848,259.894Z" style="fill-rule:nonzero;"/>
            </g>
            <g transform="matrix(1,0,0,1,0,-19)">
                <path d="M318.863,259.894C321.363,259.894 323.441,260.636 325.098,262.121C326.754,263.605 327.582,265.504 327.582,267.816C327.582,270.129 326.754,272.027 325.098,273.511C323.441,274.996 321.363,275.738 318.863,275.738C316.332,275.738 314.246,274.988 312.605,273.488C310.965,271.988 310.145,270.097 310.145,267.816C310.145,265.535 310.965,263.644 312.605,262.144C314.246,260.644 316.332,259.894 318.863,259.894Z" style="fill-rule:nonzero;"/>
            </g>
            <path d="M335.598,283.8C339.535,282.3 341.582,278.097 341.738,271.191L341.738,261.019C341.738,253.988 344.645,249.05 350.457,246.207C344.645,243.363 341.738,238.425 341.738,231.394L341.738,221.222C341.582,214.316 339.535,210.113 335.598,208.613L338.551,200.363C344.145,201.925 348.348,204.48 351.16,208.027C353.973,211.574 355.395,216.222 355.426,221.972L355.426,231.394C355.426,237.738 357.957,240.91 363.02,240.91L363.02,251.55C357.957,251.55 355.426,254.691 355.426,260.972L355.426,270.957C355.207,281.957 349.582,289.004 338.551,292.097L335.598,283.8Z" style="fill-rule:nonzero;"/>
        </g>
    </g>
</svg>
