<svg width="25" height="25" viewBox="0 0 265 226" xmlns="http://www.w3.org/2000/svg" xml:space="preserve" style="fill-rule:evenodd;clip-rule:evenodd;stroke-linejoin:round;stroke-miterlimit:2"><path d="M1048.57 498.296h.04c2.27 0 4.14-1.869 4.14-4.14 0-.08 0-.159-.01-.239 0-3.105-1.87-4.589-5.72-4.589h-6.21v16.26h2.34V498.5h2.87l.06.086 4.46 7.002h2.5l-4.79-7.247.32-.045Zm-2.71-1.629h-2.71v-5.496h3.44c1.77 0 3.79.289 3.79 2.612 0 2.671-2.04 2.884-4.53 2.884" style="fill-rule:nonzero" transform="translate(-797.13 -287.426)"/><path d="M987.626 477.92h-33.127v-51.878c0-12.371-.221-28.296-17.229-28.296-17.254 0-19.894 13.478-19.894 27.395v52.775H884.25V371.234h31.801v14.579h.446a34.893 34.893 0 0 1 31.377-17.232c33.575 0 39.766 22.084 39.766 50.815l-.014 58.524ZM846.872 356.651h-.004c-10.546 0-19.224-8.677-19.224-19.223s8.678-19.224 19.224-19.224c10.545 0 19.222 8.676 19.224 19.22v.004c0 10.544-8.676 19.222-19.22 19.223m16.563 121.269h-33.161V371.234h33.161V477.92Zm140.705-190.479H813.627c-8.943-.101-16.388 7.171-16.497 16.114v191.304c.105 8.948 7.549 16.228 16.497 16.132h190.513c8.97.113 16.44-7.166 16.56-16.132V303.542c-.12-8.962-7.6-16.233-16.56-16.115m42.01 194.658c-8.31.08-15.1 6.936-15.1 15.244 0 8.364 6.88 15.246 15.24 15.246 8.37 0 15.25-6.882 15.25-15.246 0-8.308-6.79-15.164-15.1-15.244h-.29m0 28.744-.23.002c-7.33 0-13.36-6.034-13.36-13.368 0-7.333 6.03-13.368 13.36-13.368 7.25 0 13.25 5.897 13.37 13.145v.225c.15 7.173-5.62 13.202-12.79 13.357h-.35" style="fill-rule:nonzero" transform="translate(-797.13 -287.426)"/></svg>